<svg width="305" height="369" viewBox="0 0 305 369" fill="none" xmlns="http://www.w3.org/2000/svg">
<path d="M209.83 231.807L203.895 177.024L179.072 231.807H171.552L147.134 176.893L141.2 231.807H127.066L137.493 146.004H145.418L175.247 211.345L205.075 146.004H212.869L223.427 231.807H209.83ZM305 208.044C305 221.379 296.026 231.807 273.586 231.807H237.549V146.004H272.264C293.786 146.004 301.043 156.3 301.043 168.837C301.043 177.679 295.764 183.626 289.162 186.915C296.956 190.216 305 197.211 305 208.032V208.044ZM271.215 157.885H252.207V182.434H271.215C280.582 182.434 286.135 178.073 286.135 170.16C286.135 162.247 280.594 157.885 271.215 157.885ZM290.354 206.59C290.354 198.534 283.883 193.255 274.123 193.255H252.207V219.925H274.123C283.895 219.925 290.354 214.646 290.354 206.59Z" fill="black"/>
<path d="M302.044 86.5405C301.979 86.4763 301.907 86.42 301.843 86.3558C274.177 58.0152 235.57 40.4148 192.842 40.4148C108.712 40.4148 40.5117 108.615 40.5117 192.745C40.5117 276.875 108.712 345.076 192.842 345.076C193.814 345.076 194.931 345.06 194.931 345.06C200.506 344.98 204.972 340.401 204.892 334.818C204.812 329.243 200.233 324.777 194.65 324.857L192.834 324.873C119.862 324.873 60.7068 265.718 60.7068 192.745C60.7068 119.773 119.862 60.6179 192.834 60.6179C230.252 60.6179 264.039 76.1779 288.082 101.177L288.114 101.145C292.034 104.623 298.027 104.543 301.843 100.831C305.843 96.9433 305.932 90.549 302.044 86.5486V86.5405Z" fill="black"/>
<path d="M25.2639 192.745C25.2639 100.244 100.341 25.2559 192.841 25.2559C217.591 25.2559 240.991 30.6461 262.126 40.2857L272.585 17.271C248.261 6.18544 221.318 0 192.833 0C86.3874 0 0 86.291 0 192.737C0 198.199 0.24902 203.606 0.698871 208.956L25.8503 206.835C25.4648 202.184 25.2559 197.492 25.2559 192.745H25.2639Z" fill="black"/>
<path d="M38.5266 257.796L15.2388 267.613C34.0843 312.156 69.1967 348.144 113.129 368.122L123.588 345.116C85.4155 327.756 54.906 296.492 38.5266 257.788V257.796Z" fill="black"/>
<path d="M90.9013 192.745C90.9013 136.506 136.489 90.8217 192.728 90.8217C195.226 90.8217 197.717 90.9181 200.167 91.0948V75.9124C197.717 75.7598 195.218 75.6714 192.728 75.6714C128.126 75.6714 75.751 128.143 75.751 192.745C75.751 227.938 91.2949 259.403 115.892 280.851L125.869 269.428C104.453 250.76 90.9013 223.391 90.9013 192.745Z" fill="black"/>
</svg>
